<svg id="visual" viewBox="0 0 900 600" width="900" height="600" xmlns="http://www.w3.org/2000/svg" xmlns:xlink="http://www.w3.org/1999/xlink" version="1.1"><rect x="0" y="0" width="900" height="600" fill="#001220"></rect><path d="M0 461L21.5 466.7C43 472.3 86 483.7 128.8 478.5C171.7 473.3 214.3 451.7 257.2 447.2C300 442.7 343 455.3 385.8 461C428.7 466.7 471.3 465.3 514.2 459.3C557 453.3 600 442.7 642.8 434.8C685.7 427 728.3 422 771.2 433.5C814 445 857 473 878.5 487L900 501L900 601L878.5 601C857 601 814 601 771.2 601C728.3 601 685.7 601 642.8 601C600 601 557 601 514.2 601C471.3 601 428.7 601 385.8 601C343 601 300 601 257.2 601C214.3 601 171.7 601 128.8 601C86 601 43 601 21.5 601L0 601Z" fill="#92ff71"></path><path d="M0 508L21.5 508.5C43 509 86 510 128.8 506.2C171.7 502.3 214.3 493.7 257.2 482.5C300 471.3 343 457.7 385.8 456.7C428.7 455.7 471.3 467.3 514.2 470C557 472.7 600 466.3 642.8 465.7C685.7 465 728.3 470 771.2 467C814 464 857 453 878.5 447.5L900 442L900 601L878.5 601C857 601 814 601 771.2 601C728.3 601 685.7 601 642.8 601C600 601 557 601 514.2 601C471.3 601 428.7 601 385.8 601C343 601 300 601 257.2 601C214.3 601 171.7 601 128.8 601C86 601 43 601 21.5 601L0 601Z" fill="#88e36d"></path><path d="M0 482L21.5 489.2C43 496.3 86 510.7 128.8 514.2C171.7 517.7 214.3 510.3 257.2 501.3C300 492.3 343 481.7 385.8 486.5C428.7 491.3 471.3 511.7 514.2 512C557 512.3 600 492.7 642.8 485.3C685.7 478 728.3 483 771.2 492.7C814 502.3 857 516.7 878.5 523.8L900 531L900 601L878.5 601C857 601 814 601 771.2 601C728.3 601 685.7 601 642.8 601C600 601 557 601 514.2 601C471.3 601 428.7 601 385.8 601C343 601 300 601 257.2 601C214.3 601 171.7 601 128.8 601C86 601 43 601 21.5 601L0 601Z" fill="#7dc868"></path><path d="M0 511L21.5 512.3C43 513.7 86 516.3 128.8 521.5C171.7 526.7 214.3 534.3 257.2 533.7C300 533 343 524 385.8 516C428.7 508 471.3 501 514.2 501.8C557 502.7 600 511.3 642.8 519.7C685.7 528 728.3 536 771.2 534.3C814 532.7 857 521.3 878.5 515.7L900 510L900 601L878.5 601C857 601 814 601 771.2 601C728.3 601 685.7 601 642.8 601C600 601 557 601 514.2 601C471.3 601 428.7 601 385.8 601C343 601 300 601 257.2 601C214.3 601 171.7 601 128.8 601C86 601 43 601 21.5 601L0 601Z" fill="#73ad62"></path><path d="M0 532L21.5 534.3C43 536.7 86 541.3 128.8 546.7C171.7 552 214.3 558 257.2 561.7C300 565.3 343 566.7 385.8 560.2C428.7 553.7 471.3 539.3 514.2 535.7C557 532 600 539 642.8 539C685.7 539 728.3 532 771.2 534.7C814 537.3 857 549.7 878.5 555.8L900 562L900 601L878.5 601C857 601 814 601 771.2 601C728.3 601 685.7 601 642.8 601C600 601 557 601 514.2 601C471.3 601 428.7 601 385.8 601C343 601 300 601 257.2 601C214.3 601 171.7 601 128.8 601C86 601 43 601 21.5 601L0 601Z" fill="#69925c"></path><path d="M0 569L21.5 570.3C43 571.7 86 574.3 128.8 576C171.7 577.7 214.3 578.3 257.2 574C300 569.7 343 560.3 385.8 556.3C428.7 552.3 471.3 553.7 514.2 557.2C557 560.7 600 566.3 642.8 567.7C685.7 569 728.3 566 771.2 562C814 558 857 553 878.5 550.5L900 548L900 601L878.5 601C857 601 814 601 771.2 601C728.3 601 685.7 601 642.8 601C600 601 557 601 514.2 601C471.3 601 428.7 601 385.8 601C343 601 300 601 257.2 601C214.3 601 171.7 601 128.8 601C86 601 43 601 21.5 601L0 601Z" fill="#5e7956"></path></svg>